<svg xmlns="http://www.w3.org/2000/svg" xmlns:xlink="http://www.w3.org/1999/xlink" viewBox="0 0 512 512" width="512" height="512" style="width: 100%; height: 100%; transform: translate3d(0,0,0); content-visibility: visible;" preserveAspectRatio="xMidYMid meet"><defs><clipPath id="__lottie_element_2"><rect width="512" height="512" x="0" y="0"></rect></clipPath><linearGradient id="__lottie_element_9" spreadMethod="pad" gradientUnits="userSpaceOnUse" x1="-80" y1="-85" x2="-80" y2="-35"><stop offset="0%" stop-color="rgb(255,255,255)"></stop><stop offset="46%" stop-color="rgb(128,128,128)"></stop><stop offset="100%" stop-color="rgb(0,0,0)"></stop></linearGradient><linearGradient id="__lottie_element_10" spreadMethod="pad" gradientUnits="userSpaceOnUse" x1="77" y1="-85" x2="77" y2="-35"><stop offset="0%" stop-color="rgb(255,255,255)"></stop><stop offset="46%" stop-color="rgb(128,128,128)"></stop><stop offset="100%" stop-color="rgb(0,0,0)"></stop></linearGradient><linearGradient id="__lottie_element_26" spreadMethod="pad" gradientUnits="userSpaceOnUse" x1="-1.0399999618530273" y1="-176.5" x2="0.9599999785423279" y2="188.88900756835938"><stop offset="0%" stop-color="rgb(253,207,24)"></stop><stop offset="47%" stop-color="rgb(245,171,12)"></stop><stop offset="93%" stop-color="rgb(237,135,0)"></stop></linearGradient><radialGradient id="__lottie_element_27" spreadMethod="pad" gradientUnits="userSpaceOnUse" cx="-6.039999961853027" cy="-160.1230010986328" r="342.6724710471032" fx="-6.039999961853027" fy="-160.1230010986328"><stop offset="7%" stop-color="rgb(254,254,226)"></stop><stop offset="28%" stop-color="rgb(253,238,140)"></stop><stop offset="49%" stop-color="rgb(252,222,54)"></stop><stop offset="82%" stop-color="rgb(245,184,32)"></stop><stop offset="100%" stop-color="rgb(238,145,10)"></stop></radialGradient></defs><g clip-path="url(#__lottie_element_2)"><g style="display: block;" transform="matrix(1.0299999713897705,0,0,1.0299999713897705,256.00006103515625,261.0003356933594)" opacity="1"><g opacity="1" transform="matrix(0.9700000286102295,0,0,0.9700000286102295,-208.99868774414062,-213.7576904296875)"><g opacity="1" transform="matrix(1,0,0,1,215.6439971923828,215.64500427246094)"><path fill="url(#__lottie_element_26)" fill-opacity="1" d=" M194.9969940185547,0 C194.9969940185547,107.69400024414062 107.69300079345703,194.9969940185547 0,194.9969940185547 C-107.69400024414062,194.9969940185547 -194.9969940185547,107.69400024414062 -194.9969940185547,0 C-194.9969940185547,-107.69400024414062 -107.69400024414062,-194.9969940185547 0,-194.9969940185547 C107.69300079345703,-194.9969940185547 194.9969940185547,-107.69400024414062 194.9969940185547,0z"></path></g><g opacity="1" transform="matrix(1,0,0,1,215.70199584960938,213.7169952392578)"><path fill="url(#__lottie_element_27)" fill-opacity="1" d=" M173.80799865722656,2.6630001068115234 C172.3040008544922,100.77200317382812 93.26899719238281,179.11199951171875 -2.7230000495910645,177.63999938964844 C-98.71399688720703,176.16799926757812 -175.31199645996094,95.44499969482422 -173.80799865722656,-2.6640000343322754 C-172.3040008544922,-100.77300262451172 -93.26899719238281,-179.11199951171875 2.7230000495910645,-177.64100646972656 C98.71399688720703,-176.16900634765625 175.31199645996094,-95.44499969482422 173.80799865722656,2.6630001068115234z"></path></g><g opacity="1" transform="matrix(1,0,0,1,215.6439971923828,215.64500427246094)"><path stroke-linecap="butt" stroke-linejoin="miter" fill-opacity="0" stroke-miterlimit="10" stroke="rgb(231,105,0)" stroke-opacity="1" stroke-width="8.259" d=" M194.9969940185547,0 C194.9969940185547,107.69400024414062 107.69300079345703,194.9969940185547 0,194.9969940185547 C-107.69400024414062,194.9969940185547 -194.9969940185547,107.69400024414062 -194.9969940185547,0 C-194.9969940185547,-107.69400024414062 -107.69400024414062,-194.9969940185547 0,-194.9969940185547 C107.69300079345703,-194.9969940185547 194.9969940185547,-107.69400024414062 194.9969940185547,0z"></path></g></g></g><g style="display: block;" transform="matrix(1.0299999713897705,0,0,1.0299999713897705,255.99932861328125,261.0003356933594)" opacity="1"><g opacity="1" transform="matrix(1,0,0,1,0,0)"><path fill="rgb(234,172,31)" fill-opacity="1" d=" M145.3459930419922,-70.18699645996094 C47.638999938964844,-42.632999420166016 -94.6719970703125,-54.5 -147.36900329589844,-70.18699645996094 C-158.4510040283203,-69.5009994506836 -166.68699645996094,-70.52999877929688 -166.68699645996094,-59.558998107910156 C-166.68699645996094,-48.5880012512207 -159.8300018310547,-48.93000030517578 -156.74400329589844,-37.27299880981445 C-153.6580047607422,-25.615999221801758 -145.7729949951172,6.269999980926514 -133.08700561523438,17.927000045776367 C-121.30500030517578,28.753999710083008 -100.62899780273438,33.698001861572266 -81.42900085449219,33.698001861572266 C-62.229000091552734,33.698001861572266 -43.37200164794922,30.954999923706055 -26.915000915527344,12.784000396728516 C-13.47700023651123,-2.053999900817871 -5.581999778747559,-26.437000274658203 -3.871999979019165,-34.14899826049805 C-3.5190000534057617,-35.742000579833984 -2.6429998874664307,-36.87300109863281 -1.0110000371932983,-36.87300109863281 C-1.0110000371932983,-36.87300109863281 -1.0110000371932983,-36.87300109863281 -1.0110000371932983,-36.87300109863281 C-1.0110000371932983,-36.87300109863281 -1.0110000371932983,-36.87300109863281 -1.0110000371932983,-36.87300109863281 C0.6209999918937683,-36.87300109863281 1.496999979019165,-35.742000579833984 1.850000023841858,-34.14899826049805 C3.559999942779541,-26.437000274658203 11.454999923706055,-2.053999900817871 24.89299964904785,12.784000396728516 C41.349998474121094,30.954999923706055 60.20800018310547,33.698001861572266 79.40799713134766,33.698001861572266 C98.60800170898438,33.698001861572266 119.28199768066406,28.753999710083008 131.06399536132812,17.927000045776367 C143.75,6.269999980926514 151.63600158691406,-25.615999221801758 154.7209930419922,-37.27299880981445 C157.8070068359375,-48.93000030517578 164.66400146484375,-48.5880012512207 164.66400146484375,-59.558998107910156 C164.66400146484375,-70.52999877929688 156.4290008544922,-69.5009994506836 145.3459930419922,-70.18699645996094z"></path></g></g><g style="display: block;" transform="matrix(1.0299999713897705,0,0,1.0299999713897705,255.99932861328125,261.0001220703125)" opacity="1"><g opacity="1" transform="matrix(1,0,0,1,0,0)"><path fill="rgb(254,221,120)" fill-opacity="1" d=" M89.25199890136719,49.46099853515625 C84.43000030517578,45.87200164794922 61.659000396728516,83.0770034790039 -1.2569999694824219,83.0770034790039 C-62.78200149536133,83.0770034790039 -87.38500213623047,45.34400177001953 -91.76599884033203,49.46099853515625 C-100.67400360107422,57.83100128173828 -65.91100311279297,108.57499694824219 -1.2569999694824219,108.57499694824219 C63.39699935913086,108.57499694824219 100.03900146484375,57.4900016784668 89.25199890136719,49.46099853515625z"></path></g><g opacity="1" transform="matrix(1,0,0,1,0,0)"><path fill="rgb(234,172,31)" fill-opacity="1" d=" M89.41799926757812,49.59199905395508 C83.21199798583984,43.426998138427734 61.319000244140625,73.18199920654297 -1.2569999694824219,73.18199920654297 C-62.45000076293945,73.18199920654297 -85.54100036621094,43.61899948120117 -91.91799926757812,49.61399841308594 C-96.94999694824219,54.34400177001953 -65.56099700927734,102.44599914550781 -1.2569999694824219,102.44599914550781 C63.047000885009766,102.44599914550781 94.31800079345703,54.45899963378906 89.41799926757812,49.59199905395508z"></path></g><g opacity="1" transform="matrix(1,0,0,1,0,0)"><path fill="rgb(151,72,0)" fill-opacity="1" d=" M89.25199890136719,51.46099853515625 C84.63999938964844,47.702999114990234 60.57899856567383,79.23400115966797 -1.2569999694824219,79.23400115966797 C-61.72700119018555,79.23400115966797 -87.15399932861328,47.702999114990234 -91.76599884033203,51.46099853515625 C-97.10399627685547,55.81100082397461 -64.8010025024414,102.73200225830078 -1.2569999694824219,102.73200225830078 C62.2869987487793,102.73200225830078 94.58999633789062,55.81100082397461 89.25199890136719,51.46099853515625z"></path></g><g opacity="1" transform="matrix(1,0,0,1,0,0)"><path fill="rgb(99,41,0)" fill-opacity="1" d=" M89.0770034790039,56.1870002746582 C84.0770034790039,53.33700180053711 59.86800003051758,85.0770034790039 -1.2519999742507935,85.0770034790039 C-61.02199935913086,85.0770034790039 -86.56199645996094,53.33700180053711 -91.59200286865234,56.1870002746582 C-92.51200103759766,53.80699920654297 -92.58200073242188,52.12699890136719 -91.76200103759766,51.457000732421875 C-87.1520004272461,47.707000732421875 -61.72200012207031,79.23699951171875 -1.2519999742507935,79.23699951171875 C60.577999114990234,79.23699951171875 84.63700103759766,47.707000732421875 89.24700164794922,51.457000732421875 C90.06700134277344,52.12699890136719 89.99700164794922,53.80699920654297 89.0770034790039,56.1870002746582z"></path></g></g><g style="display: block;" transform="matrix(1.0299999713897705,0,0,1.0299999713897705,256.00018310546875,241.4293975830078)" opacity="1"><g opacity="1" transform="matrix(1,0,0,1,0,0)"><g opacity="1" transform="matrix(1,0,0,1,0,0)"><path fill="rgb(234,172,31)" fill-opacity="1" d=" M91.75,-25.079999923706055 C91.75,-6.64300012588501 80.86199951171875,8.302000045776367 67.43099975585938,8.302000045776367 C54,8.302000045776367 43.111000061035156,-6.64300012588501 43.111000061035156,-25.079999923706055 C43.111000061035156,-43.516998291015625 54,-58.4630012512207 67.43099975585938,-58.4630012512207 C80.86199951171875,-58.4630012512207 91.75,-43.516998291015625 91.75,-25.079999923706055z"></path></g><g opacity="1" transform="matrix(1,0,0,1,0,0)"><path fill="rgb(151,72,0)" fill-opacity="1" d=" M90.2300033569336,-19.50200080871582 C90.2300033569336,-1.065000057220459 80.02300262451172,13.880000114440918 67.43099975585938,13.880000114440918 C54.8390007019043,13.880000114440918 44.63100051879883,-1.065000057220459 44.63100051879883,-19.50200080871582 C44.63100051879883,-37.93899917602539 54.8390007019043,-52.88399887084961 67.43099975585938,-52.88399887084961 C80.02300262451172,-52.88399887084961 90.2300033569336,-37.93899917602539 90.2300033569336,-19.50200080871582z"></path></g><g opacity="1" transform="matrix(1,0,0,1,0,0)"><path fill="rgb(99,41,0)" fill-opacity="1" d=" M90.02999877929688,-15.173999786376953 C88.5999984741211,-31.582000732421875 79.0250015258789,-44.24399948120117 67.43199920654297,-44.24399948120117 C55.8390007019043,-44.24399948120117 46.263999938964844,-31.582000732421875 44.83399963378906,-15.173999786376953 C42.82500076293945,-38.13600158691406 54.84199905395508,-52.88100051879883 67.43199920654297,-52.88100051879883 C80.02200317382812,-52.88100051879883 91.75,-37.45899963378906 90.02999877929688,-15.173999786376953z"></path></g></g><g opacity="1" transform="matrix(1,0,0,1,0,0)"><g opacity="1" transform="matrix(1,0,0,1,0,0)"><path fill="rgb(234,172,31)" fill-opacity="1" d=" M-42.5,-25.079999923706055 C-42.5,-6.64300012588501 -53.6619987487793,8.302000045776367 -67.43099975585938,8.302000045776367 C-81.19999694824219,8.302000045776367 -92.36100006103516,-6.64300012588501 -92.36100006103516,-25.079999923706055 C-92.36100006103516,-43.516998291015625 -81.19999694824219,-58.4630012512207 -67.43099975585938,-58.4630012512207 C-53.6619987487793,-58.4630012512207 -42.5,-43.516998291015625 -42.5,-25.079999923706055z"></path></g><g opacity="1" transform="matrix(1,0,0,1,0,0)"><path fill="rgb(151,72,0)" fill-opacity="1" d=" M-44.05799865722656,-19.50200080871582 C-44.05799865722656,-1.065000057220459 -54.52299880981445,13.880000114440918 -67.43099975585938,13.880000114440918 C-80.33899688720703,13.880000114440918 -90.8030014038086,-1.065000057220459 -90.8030014038086,-19.50200080871582 C-90.8030014038086,-37.93899917602539 -80.33899688720703,-52.88399887084961 -67.43099975585938,-52.88399887084961 C-54.52299880981445,-52.88399887084961 -44.05799865722656,-37.93899917602539 -44.05799865722656,-19.50200080871582z"></path></g><g opacity="1" transform="matrix(1,0,0,1,0,0)"><path fill="rgb(99,41,0)" fill-opacity="1" d=" M-44.26300048828125,-15.173999786376953 C-45.729000091552734,-31.582000732421875 -55.54499816894531,-44.24399948120117 -67.42900085449219,-44.24399948120117 C-79.31300354003906,-44.24399948120117 -89.12899780273438,-31.582000732421875 -90.59500122070312,-15.173999786376953 C-92.65499877929688,-38.13600158691406 -80.33599853515625,-52.88100051879883 -67.42900085449219,-52.88100051879883 C-54.52199935913086,-52.88100051879883 -42.5,-37.45899963378906 -44.26300048828125,-15.173999786376953z"></path></g></g></g><g style="display: none;"><g><path></path></g><g><path></path></g><g><path></path></g><g><path></path></g><g><path></path></g><g><path></path></g><g><path></path></g><g><path></path></g><g><path></path></g></g><g style="display: block;" transform="matrix(1.0299999713897705,0,0,1.0299999713897705,255.99932861328125,261.00048828125)" opacity="1"><g opacity="1" transform="matrix(1,0,0,1,0,0)"><path fill="rgb(29,29,27)" fill-opacity="1" d=" M145.3459930419922,-79.18699645996094 C134.26400756835938,-79.87300109863281 76.35199737548828,-80.49099731445312 48.54999923706055,-74.04399871826172 C24.89299964904785,-68.55799865722656 12.26099967956543,-61.810001373291016 -1.0110000371932983,-61.35900115966797 C-14.282999992370605,-61.810001373291016 -26.915000915527344,-68.55799865722656 -50.571998596191406,-74.04399871826172 C-78.3740005493164,-80.49099731445312 -136.28700256347656,-79.87300109863281 -147.36900329589844,-79.18699645996094 C-158.4510040283203,-78.5009994506836 -162.68699645996094,-79.52999877929688 -162.68699645996094,-68.55899810791016 C-162.68699645996094,-57.5880012512207 -155.8300018310547,-57.93000030517578 -152.74400329589844,-46.27299880981445 C-149.6580047607422,-34.61600112915039 -141.7729949951172,-2.7300000190734863 -129.08700561523438,8.927000045776367 C-117.30500030517578,19.753999710083008 -100.62899780273438,24.697999954223633 -81.42900085449219,24.697999954223633 C-62.229000091552734,24.697999954223633 -43.37200164794922,21.954999923706055 -26.915000915527344,3.7839999198913574 C-13.47700023651123,-11.053999900817871 -7.581999778747559,-33.4370002746582 -5.872000217437744,-41.14899826049805 C-5.519000053405762,-42.742000579833984 -4.111000061035156,-43.87300109863281 -2.4790000915527344,-43.87300109863281 C-2.4790000915527344,-43.87300109863281 -1.0110000371932983,-43.87300109863281 -1.0110000371932983,-43.87300109863281 C-1.0110000371932983,-43.87300109863281 0.4569999873638153,-43.87300109863281 0.4569999873638153,-43.87300109863281 C2.0889999866485596,-43.87300109863281 3.496999979019165,-42.742000579833984 3.8499999046325684,-41.14899826049805 C5.559999942779541,-33.4370002746582 11.454999923706055,-11.053999900817871 24.89299964904785,3.7839999198913574 C41.349998474121094,21.954999923706055 60.207000732421875,24.697999954223633 79.40699768066406,24.697999954223633 C98.60700225830078,24.697999954223633 115.28199768066406,19.753999710083008 127.06400299072266,8.927000045776367 C139.75,-2.7300000190734863 147.63600158691406,-34.61600112915039 150.7209930419922,-46.27299880981445 C153.8070068359375,-57.93000030517578 160.66400146484375,-57.5880012512207 160.66400146484375,-68.55899810791016 C160.66400146484375,-79.52999877929688 156.4290008544922,-78.5009994506836 145.3459930419922,-79.18699645996094z"></path></g><g opacity="0.35000000000000003" transform="matrix(1,0,0,1,0,0)"><path fill="rgb(255,255,255)" fill-opacity="1" d=" M-85.20099639892578,-64.43699645996094 C-110.41699981689453,-65.8759994506836 -120.76599884033203,-65.9749984741211 -127.7979965209961,-63.84299850463867 C-135.7469940185547,-61.43299865722656 -141.52000427246094,-52.66400146484375 -136.9149932861328,-34.84600067138672 C-132.30999755859375,-17.027999877929688 -128.29200744628906,-3.0399999618530273 -118.78800201416016,3.746000051498413 C-111.91699981689453,8.652000427246094 -100.28500366210938,14.25 -82.38899993896484,14.25 C-66.90299987792969,14.25 -52.9739990234375,12.076000213623047 -41.63999938964844,1.2580000162124634 C-30.305999755859375,-9.5600004196167 -23.784000396728516,-31.593000411987305 -21.923999786376953,-43.297000885009766 C-20.295000076293945,-53.551998138427734 -37.742000579833984,-61.72800064086914 -85.20099639892578,-64.43699645996094z"></path></g><g opacity="1" transform="matrix(1,0,0,1,0,0)"><path fill="url(#__lottie_element_9)" fill-opacity="1" d=" M-84.51300048828125,-66.55999755859375 C-108.9219970703125,-67.97200012207031 -121.30799865722656,-66.50800323486328 -128.11500549316406,-64.41600036621094 C-135.80999755859375,-62.05099868774414 -140.4290008544922,-53.44499969482422 -135.9720001220703,-35.95899963378906 C-131.51499938964844,-18.472999572753906 -125.31500244140625,-5.218999862670898 -116.11499786376953,1.440999984741211 C-109.46399688720703,6.25600004196167 -99.1729965209961,10.781999588012695 -81.8489990234375,10.781999588012695 C-66.85800170898438,10.781999588012695 -54.34299850463867,9.616000175476074 -43.37200164794922,-1 C-32.4010009765625,-11.616000175476074 -23.57200050354004,-32.387001037597656 -21.77199935913086,-43.87300109863281 C-20.19499969482422,-53.9370002746582 -38.571998596191406,-63.902000427246094 -84.51300048828125,-66.55999755859375z"></path></g><g opacity="0.35000000000000003" transform="matrix(1,0,0,1,0,0)"><path fill="rgb(255,255,255)" fill-opacity="1" d=" M83.17900085449219,-64.44200134277344 C108.3949966430664,-65.87699890136719 118.74299621582031,-65.9749984741211 125.7750015258789,-63.849998474121094 C133.7239990234375,-61.446998596191406 139.4969940185547,-52.70500183105469 134.89199829101562,-34.94300079345703 C130.28700256347656,-17.180999755859375 126.2699966430664,-3.236999988555908 116.76599884033203,3.5280001163482666 C109.8949966430664,8.418999671936035 98.26200103759766,14 80.36599731445312,14 C64.87999725341797,14 50.95100021362305,11.833000183105469 39.617000579833984,1.0490000247955322 C28.283000946044922,-9.734999656677246 21.761999130249023,-31.701000213623047 19.902000427246094,-43.36800003051758 C18.273000717163086,-53.590999603271484 35.720001220703125,-61.74100112915039 83.17900085449219,-64.44200134277344z"></path></g><g opacity="1" transform="matrix(1,0,0,1,0,0)"><path fill="url(#__lottie_element_10)" fill-opacity="1" d=" M133.9499969482422,-35.959999084472656 C129.49000549316406,-18.469999313354492 123.29000091552734,-5.21999979019165 114.08999633789062,1.440000057220459 C107.44000244140625,6.260000228881836 97.1500015258789,10.779999732971191 79.83000183105469,10.779999732971191 C79.38999938964844,10.779999732971191 78.95999908447266,10.779999732971191 78.5199966430664,10.770000457763672 C72.41000366210938,10.75 66.70999908447266,10.479999542236328 61.36000061035156,9.390000343322754 C56.61000061035156,8.430000305175781 52.130001068115234,6.820000171661377 47.88999938964844,4.150000095367432 C45.650001525878906,2.75 43.470001220703125,1.0499999523162842 41.349998474121094,-1 C36.20000076293945,-5.980000019073486 31.540000915527344,-13.1899995803833 27.84000015258789,-20.6200008392334 C23.649999618530273,-29.049999237060547 20.709999084472656,-37.77000045776367 19.75,-43.869998931884766 C18.459999084472656,-52.06999969482422 30.399999618530273,-60.189998626708984 59.650001525878906,-64.36000061035156 C66.33999633789062,-65.31999969482422 73.94000244140625,-66.05999755859375 82.48999786376953,-66.55999755859375 C89.06999969482422,-66.94000244140625 94.76000213623047,-67.11000061035156 99.7300033569336,-67.12000274658203 C106.62999725341797,-67.12999725341797 112.08999633789062,-66.81999969482422 116.43000030517578,-66.30999755859375 C120.55000305175781,-65.81999969482422 123.66999816894531,-65.16000366210938 126.08999633789062,-64.41999816894531 C127.97000122070312,-63.84000015258789 129.6699981689453,-62.88999938964844 131.10000610351562,-61.5099983215332 C135.50999450683594,-57.29999923706055 137.32000732421875,-49.15999984741211 133.9499969482422,-35.959999084472656z"></path></g></g><g style="display: block;" transform="matrix(1.1330000162124634,0,0,1.1330000162124634,150.53298950195312,261.13067626953125)" opacity="1"><g opacity="1" transform="matrix(1,0,0,1,0,0)"><path fill="rgb(255,255,255)" fill-opacity="1" d=" M91.24800109863281,58.26599884033203 C91.24800109863281,58.26599884033203 91.89600372314453,58.33300018310547 91.89600372314453,58.33300018310547 C91.89600372314453,58.33300018310547 91.24800109863281,58.400001525878906 91.24800109863281,58.400001525878906 C90.9219970703125,58.433998107910156 90.66500091552734,58.691001892089844 90.63099670410156,59.016998291015625 C90.63099670410156,59.016998291015625 90.56400299072266,59.66600036621094 90.56400299072266,59.66600036621094 C90.56400299072266,59.66600036621094 90.49700164794922,59.016998291015625 90.49700164794922,59.016998291015625 C90.46299743652344,58.691001892089844 90.20600128173828,58.433998107910156 89.87999725341797,58.400001525878906 C89.87999725341797,58.400001525878906 89.23100280761719,58.33300018310547 89.23100280761719,58.33300018310547 C89.23100280761719,58.33300018310547 89.87999725341797,58.26599884033203 89.87999725341797,58.26599884033203 C90.20600128173828,58.231998443603516 90.46299743652344,57.974998474121094 90.49700164794922,57.64899826049805 C90.49700164794922,57.64899826049805 90.56400299072266,57.000999450683594 90.56400299072266,57.000999450683594 C90.56400299072266,57.000999450683594 90.63099670410156,57.64899826049805 90.63099670410156,57.64899826049805 C90.66500091552734,57.974998474121094 90.9219970703125,58.231998443603516 91.24800109863281,58.26599884033203z"></path></g></g></g></svg>